<svg xmlns="http://www.w3.org/2000/svg" xmlns:xlink="http://www.w3.org/1999/xlink"><symbol class="icon" id="sprite-app-toolbar-collapse" viewBox="0 0 1028 1024"><path d="M989.867 234.667H499.2c-17.067 0-34.133-21.334-34.133-42.667 0-25.6 12.8-42.667 34.133-42.667h490.667c17.066 0 34.133 17.067 34.133 42.667 0 21.333-12.8 42.667-34.133 42.667m-473.6 128h465.066c25.6 0 46.934 21.333 46.934 42.666 0 25.6-21.334 42.667-46.934 42.667H516.267c-25.6 0-46.934-17.067-46.934-42.667s21.334-42.666 46.934-42.666m0 298.666c-25.6 0-46.934-21.333-46.934-42.666 0-25.6 21.334-42.667 46.934-42.667h465.066c25.6 0 46.934 17.067 46.934 42.667s-21.334 42.666-46.934 42.666zm4.266 128H972.8c29.867 0 51.2 17.067 51.2 42.667s-21.333 42.667-51.2 42.667H520.533c-29.866 0-51.2-17.067-51.2-42.667s21.334-42.667 51.2-42.667m-192 25.6c-17.066 17.067-46.933 17.067-64 0L12.8 541.867c-17.067-17.067-17.067-51.2 0-68.267l251.733-273.067c17.067-17.066 46.934-17.066 64 0s17.067 51.2 0 68.267L106.667 507.733l221.866 238.934c17.067 21.333 17.067 51.2 0 68.266"/></symbol><use xlink:href="#sprite-app-toolbar-collapse" width="200.781" height="200" y="0"/><view class="icon" id="sprite-app-toolbar-collapse-view" viewBox="0 0 200.781 200"/><symbol class="icon" id="sprite-example-crown" viewBox="0 0 1024 1024"><path fill="#dca54f" d="m136.533 273.067 669.048 422.058c10.65 6.725 15.838 20.48 12.697 33.588-3.106 13.073-13.824 22.186-26.077 22.22H238.42c-27.306 0-50.346-22.425-53.726-52.326l-48.162-425.54z"/><path fill="#dca54f" d="M834.219 698.607c-3.345 29.9-26.385 52.326-53.692 52.326H245.794c-12.288 0-41.984-9.113-45.124-22.186-3.175-13.073 2.048-26.863 12.697-33.588l668.98-422.092-48.128 425.506z"/><path fill="#e7b15c" d="m512 170.667 298.428 490.598a61.44 61.44 0 0 1 2.184 59.324c-9.489 18.705-27.818 30.344-47.718 30.344H512z"/><path fill="#f2d59c" d="M512 170.667 196.062 666.01a61.44 61.44 0 0 0-2.185 59.323c9.49 18.705 27.341 25.6 47.24 25.6H512z"/><path fill="#e7b15c" d="M459.776 153.327c0 18.193 9.967 34.987 26.112 44.1a53.35 53.35 0 0 0 52.224 0c16.145-9.113 26.112-25.941 26.112-44.1 0-28.126-23.381-50.927-52.224-50.927s-52.224 22.801-52.224 50.927M851.319 255.18c-.41 18.432 9.455 35.67 25.771 45.022 16.316 9.318 36.523 9.318 52.873 0 16.315-9.353 26.18-26.59 25.77-45.056-.614-27.648-23.825-49.8-52.224-49.8-28.364 0-51.541 22.152-52.19 49.834m-783.018 0c-.444 18.432 9.42 35.67 25.736 45.022 16.316 9.318 36.523 9.318 52.873 0 16.316-9.353 26.18-26.59 25.77-45.056-.614-27.648-23.825-49.8-52.223-49.8-28.365 0-51.542 22.152-52.19 49.834z"/><path fill="#dca54f" d="M238.933 819.2h546.134q34.133 0 34.133 34.133t-34.133 34.134H238.933q-34.133 0-34.133-34.134t34.133-34.133"/></symbol><use xlink:href="#sprite-example-crown" width="200" height="200" y="200"/><view class="icon" id="sprite-example-crown-view" viewBox="0 200 200 200"/><symbol class="icon" id="sprite-example-emotion-laugh-line" viewBox="0 0 1024 1024"><path d="M512 85.333c235.648 0 426.667 191.019 426.667 426.667S747.648 938.667 512 938.667 85.333 747.648 85.333 512 276.352 85.333 512 85.333m0 85.334a341.333 341.333 0 1 0 0 682.666 341.333 341.333 0 0 0 0-682.666m0 298.666c85.333 0 156.459 14.208 213.333 42.667a213.333 213.333 0 0 1-426.666 0c56.874-28.459 128-42.667 213.333-42.667M362.667 298.667A106.67 106.67 0 0 1 467.2 384H258.133a106.67 106.67 0 0 1 104.534-85.333m298.666 0A106.67 106.67 0 0 1 765.867 384H556.8a106.67 106.67 0 0 1 104.533-85.333"/></symbol><use xlink:href="#sprite-example-emotion-laugh-line" width="200" height="200" y="400"/><view class="icon" id="sprite-example-emotion-laugh-line-view" viewBox="0 400 200 200"/><symbol class="icon" id="sprite-example-emotion-line" viewBox="0 0 1024 1024"><path d="M512 938.667C276.352 938.667 85.333 747.648 85.333 512S276.352 85.333 512 85.333 938.667 276.352 938.667 512 747.648 938.667 512 938.667m0-85.334a341.333 341.333 0 1 0 0-682.666 341.333 341.333 0 0 0 0 682.666M341.333 554.667h341.334a170.667 170.667 0 1 1-341.334 0m0-85.334a64 64 0 1 1 0-128 64 64 0 0 1 0 128m341.334 0a64 64 0 1 1 0-128 64 64 0 0 1 0 128"/></symbol><use xlink:href="#sprite-example-emotion-line" width="200" height="200" y="600"/><view class="icon" id="sprite-example-emotion-line-view" viewBox="0 600 200 200"/><symbol class="icon" id="sprite-example-emotion-unhappy-line" viewBox="0 0 1024 1024"><path d="M512 938.667C276.352 938.667 85.333 747.648 85.333 512S276.352 85.333 512 85.333 938.667 276.352 938.667 512 747.648 938.667 512 938.667m0-85.334a341.333 341.333 0 1 0 0-682.666 341.333 341.333 0 0 0 0 682.666m-213.333-128a213.333 213.333 0 0 1 426.666 0H640a128 128 0 0 0-256 0zm42.666-256a64 64 0 1 1 0-128 64 64 0 0 1 0 128m341.334 0a64 64 0 1 1 0-128 64 64 0 0 1 0 128"/></symbol><use xlink:href="#sprite-example-emotion-unhappy-line" width="200" height="200" y="800"/><view class="icon" id="sprite-example-emotion-unhappy-line-view" viewBox="0 800 200 200"/><symbol class="icon" id="sprite-example-star" viewBox="0 0 1024 1024"><path fill="#ffc500" d="M512 768 262.059 899.413a28.444 28.444 0 0 1-41.245-30.009l47.702-278.3L66.332 394.012a28.444 28.444 0 0 1 15.759-48.526l279.438-40.59L486.485 51.684a28.444 28.444 0 0 1 51.03 0L662.47 304.896l279.438 40.59a28.444 28.444 0 0 1 15.759 48.526l-202.184 197.12 47.73 278.272a28.444 28.444 0 0 1-41.273 29.98z"/><path fill="#fed902" d="M512 768 262.059 899.413a28.444 28.444 0 0 1-41.245-30.009l47.702-278.3q54.186-286.208 93.013-286.208c38.827 0 393.955 261.774 393.955 286.208 0 16.299-81.18 75.264-243.484 176.896"/></symbol><use xlink:href="#sprite-example-star" width="200" height="200" y="1000"/><view class="icon" id="sprite-example-star-view" viewBox="0 1000 200 200"/><symbol class="icon" id="sprite-example-vip" viewBox="0 0 1024 1024"><path fill="#ffa100" d="M270.219 121.212h483.474a29.26 29.26 0 0 1 23.347 11.645l188.416 249.885a29.26 29.26 0 0 1-1.843 37.42l-429.67 467.587a29.257 29.257 0 0 1-43.037.059L60.416 421.595a29.26 29.26 0 0 1-1.931-37.39l188.328-251.26a29.26 29.26 0 0 1 23.406-11.703z"/><path fill="#ffc663" d="m768.293 121.212 197.163 261.56a29.26 29.26 0 0 1-1.843 37.39L532.714 889.066a11.703 11.703 0 0 1-20.304-7.9L512 257.025l256.293-135.84z"/><path fill="#fff" d="M721.598 386.34a29 29 0 0 1 .995 1.025l22.733 23.873a29.257 29.257 0 0 1 0 40.346l-189.411 198.89-22.733 23.874a29 29 0 0 1-1.726 1.668l1.755-1.668a29.5 29.5 0 0 1-19.456 9.011 28.94 28.94 0 0 1-18.08-4.915 30.2 30.2 0 0 1-4.857-4.096l1.96 1.872-.965-.877-.995-.995-22.733-23.874-189.41-198.89a29.257 29.257 0 0 1 0-40.375l22.732-23.844a29.257 29.257 0 0 1 42.364 0L512 563.96l168.229-176.596a29.257 29.257 0 0 1 41.37-1.024z"/></symbol><use xlink:href="#sprite-example-vip" width="200" height="200" y="1200"/><view class="icon" id="sprite-example-vip-view" viewBox="0 1200 200 200"/></svg>